<?xml version="1.0" encoding="UTF-8"?>
<!DOCTYPE svg PUBLIC "-//W3C//DTD SVG 1.1//EN" "http://www.w3.org/Graphics/SVG/1.1/DTD/svg11.dtd">
<svg xmlns="http://www.w3.org/2000/svg" version="1.1" width="192px" height="192px" style="shape-rendering:geometricPrecision; text-rendering:geometricPrecision; image-rendering:optimizeQuality; fill-rule:evenodd; clip-rule:evenodd" xmlns:xlink="http://www.w3.org/1999/xlink">
<g><path style="opacity:1" fill="#f8ccaf" d="M -0.5,-0.5 C 63.5,-0.5 127.5,-0.5 191.5,-0.5C 191.5,63.5 191.5,127.5 191.5,191.5C 127.5,191.5 63.5,191.5 -0.5,191.5C -0.5,127.5 -0.5,63.5 -0.5,-0.5 Z"/></g>
<g><path style="opacity:1" fill="#f6ad87" d="M 116.5,65.5 C 116.709,66.9217 117.209,68.255 118,69.5C 124.324,59.5903 133.157,56.2569 144.5,59.5C 151.473,64.6362 153.307,71.3028 150,79.5C 145.822,88.8393 138.655,92.8393 128.5,91.5C 128.33,92.8221 128.663,93.9887 129.5,95C 132.536,95.6385 135.536,95.4718 138.5,94.5C 139.647,94.8178 140.481,95.4844 141,96.5C 141.831,103.524 141.664,110.524 140.5,117.5C 133.723,120.104 129.723,124.938 128.5,132C 128.354,134.034 129.02,135.701 130.5,137C 127.761,138.026 125.428,139.526 123.5,141.5C 112.263,143.292 100.929,143.958 89.5,143.5C 88.9524,141.606 87.9524,139.94 86.5,138.5C 94.9675,128.127 94.3008,118.294 84.5,109C 77.408,104.241 69.908,103.408 62,106.5C 61.949,96.4337 57.1156,92.267 47.5,94C 41.9383,100.62 42.2716,106.953 48.5,113C 50.2556,113.202 51.9223,113.702 53.5,114.5C 49.6872,120.011 49.5206,125.677 53,131.5C 56.596,134.717 59.4293,137.884 61.5,141C 60.365,141.749 59.365,141.583 58.5,140.5C 57.2984,137.132 54.9651,134.966 51.5,134C 48.123,133.631 44.7897,133.631 41.5,134C 40.6667,133.167 39.8333,132.333 39,131.5C 40.0612,124.441 37.2279,119.941 30.5,118C 29.9152,116.698 29.2485,115.531 28.5,114.5C 27.9235,106.992 30.5902,100.992 36.5,96.5C 49.4009,55.3808 75.7342,42.8808 115.5,59C 115.833,59.3333 116.167,59.6667 116.5,60C 114.189,62.2056 114.189,64.039 116.5,65.5 Z"/></g>
<g><path style="opacity:1" fill="#1d191c" d="M 136.5,174.5 C 133.603,174.875 130.937,174.375 128.5,173C 132.211,172.825 135.878,172.325 139.5,171.5C 139.376,170.893 139.043,170.56 138.5,170.5C 131.628,167.633 127.295,162.633 125.5,155.5C 124.571,154.685 123.571,153.852 122.5,153C 123.416,152.626 124.25,152.126 125,151.5C 125.278,152.416 125.778,153.082 126.5,153.5C 132.631,156.399 138.631,159.566 144.5,163C 148.539,163.048 152.539,162.548 156.5,161.5C 157.376,161.631 158.043,161.298 158.5,160.5C 154.555,159.509 150.555,159.176 146.5,159.5C 141.591,158.885 136.924,157.385 132.5,155C 130.676,154.34 129.343,153.173 128.5,151.5C 128.435,151.062 128.601,150.728 129,150.5C 130.738,153.132 132.905,154.132 135.5,153.5C 138.745,152.621 141.911,151.621 145,150.5C 149.279,151.225 153.112,152.891 156.5,155.5C 157.442,155.392 158.275,155.059 159,154.5C 159.309,153.234 159.809,152.067 160.5,151C 156.698,150.622 153.198,149.455 150,147.5C 141.298,149.703 134.131,147.369 128.5,140.5C 126.054,141.427 125.221,143.094 126,145.5C 128.209,145.989 130.042,146.989 131.5,148.5C 130.535,148.4 129.368,148.734 128,149.5C 126.629,148.419 125.129,147.585 123.5,147C 123.966,145.701 123.966,144.201 123.5,142.5C 123.5,142.167 123.5,141.833 123.5,141.5C 125.428,139.526 127.761,138.026 130.5,137C 129.02,135.701 128.354,134.034 128.5,132C 129.723,124.938 133.723,120.104 140.5,117.5C 141.664,110.524 141.831,103.524 141,96.5C 140.481,95.4844 139.647,94.8178 138.5,94.5C 135.536,95.4718 132.536,95.6385 129.5,95C 128.663,93.9887 128.33,92.8221 128.5,91.5C 138.655,92.8393 145.822,88.8393 150,79.5C 153.307,71.3028 151.473,64.6362 144.5,59.5C 138.473,54.0798 131.806,53.2465 124.5,57C 121.601,59.7291 118.934,62.5624 116.5,65.5C 114.189,64.039 114.189,62.2056 116.5,60C 116.167,59.6667 115.833,59.3333 115.5,59C 75.7342,42.8808 49.4009,55.3808 36.5,96.5C 30.5902,100.992 27.9235,106.992 28.5,114.5C 28.6713,117.797 28.0046,118.131 26.5,115.5C 27.6483,111.853 27.6483,108.186 26.5,104.5C 27.9906,100.198 30.4906,96.5315 34,93.5C 35.3847,88.9392 37.218,84.6059 39.5,80.5C 31.933,71.9636 30.7663,62.6303 36,52.5C 47.2035,41.275 59.0368,40.6084 71.5,50.5C 87.9174,46.9531 103.584,48.9531 118.5,56.5C 133.377,47.5228 145.21,50.5228 154,65.5C 156.44,72.6406 155.44,79.3073 151,85.5C 148.317,88.0159 145.817,90.6826 143.5,93.5C 145.258,101.045 145.925,108.712 145.5,116.5C 156.75,115.07 166.25,118.404 174,126.5C 176.966,131.666 177.132,136.832 174.5,142C 177.412,145.053 180.245,148.219 183,151.5C 185.19,159.496 183.023,165.996 176.5,171C 173.131,171.663 169.797,171.496 166.5,170.5C 156.74,173.248 146.74,174.581 136.5,174.5 Z"/></g>
<g><path style="opacity:1" fill="#e7c4a3" d="M 51.5,58.5 C 52.8734,58.3433 54.2068,58.51 55.5,59C 53.3333,61.1667 51.1667,63.3333 49,65.5C 48.3333,64.1667 48.3333,62.8333 49,61.5C 50.045,60.6266 50.8783,59.6266 51.5,58.5 Z"/></g>
<g><path style="opacity:1" fill="#e78c64" d="M 144.5,59.5 C 133.157,56.2569 124.324,59.5903 118,69.5C 117.209,68.255 116.709,66.9217 116.5,65.5C 118.934,62.5624 121.601,59.7291 124.5,57C 131.806,53.2465 138.473,54.0798 144.5,59.5 Z"/></g>
<g><path style="opacity:1" fill="#f2aa84" d="M 47.5,47.5 C 51.8461,47.3343 56.1794,47.501 60.5,48C 62.8689,48.5359 64.8689,49.7026 66.5,51.5C 64.7173,53.2316 62.7173,54.7316 60.5,56C 49.8309,54.3376 44.9976,58.8376 46,69.5C 44.3333,71.8333 42.6667,74.1667 41,76.5C 39.1706,74.8442 37.8372,72.8442 37,70.5C 34.5851,60.0031 38.0851,52.3365 47.5,47.5 Z"/></g>
<g><path style="opacity:1" fill="#171516" d="M 126.5,64.5 C 137.143,61.9964 141.976,65.9964 141,76.5C 137.441,83.1079 131.941,85.6079 124.5,84C 122.48,80.4285 121.147,76.5952 120.5,72.5C 122.106,69.5573 124.106,66.8906 126.5,64.5 Z"/></g>
<g><path style="opacity:1" fill="#f4be9e" d="M 128.5,66.5 C 138.734,65.5452 141.567,69.5452 137,78.5C 133.884,81.91 130.218,82.91 126,81.5C 125.127,78.3819 123.961,75.3819 122.5,72.5C 124.215,70.1182 126.215,68.1182 128.5,66.5 Z"/></g>
<g><path style="opacity:1" fill="#1f1b1c" d="M 51.5,82.5 C 57.2866,82.1621 62.4533,84.1621 67,88.5C 69.367,91.938 68.5336,93.438 64.5,93C 59.77,89.9713 55.4366,86.4713 51.5,82.5 Z"/></g>
<g><path style="opacity:1" fill="#1b181a" d="M 97.5,99.5 C 102.179,99.3342 106.845,99.5008 111.5,100C 105.243,102.474 98.9101,104.641 92.5,106.5C 93.0025,103.331 94.6691,100.998 97.5,99.5 Z"/></g>
<g><path style="opacity:1" fill="#201d1e" d="M 101.5,105.5 C 104.85,105.335 108.183,105.502 111.5,106C 114.24,107.05 115.74,108.883 116,111.5C 108.841,112.307 101.675,113.307 94.5,114.5C 95.6863,110.643 98.0197,107.643 101.5,105.5 Z"/></g>
<g><path style="opacity:1" fill="#f97e0e" d="M 173.5,131.5 C 173.773,133.451 173.107,134.951 171.5,136C 158.087,139.571 145.253,138.071 133,131.5C 132.667,131.833 132.333,132.167 132,132.5C 131.517,131.552 131.351,130.552 131.5,129.5C 133.36,124.39 137.027,121.39 142.5,120.5C 152.871,117.542 162.371,119.542 171,126.5C 172.094,128.078 172.928,129.745 173.5,131.5 Z"/></g>
<g><path style="opacity:1" fill="#ffcea1" d="M 142.5,120.5 C 143.978,120.238 145.311,120.571 146.5,121.5C 145.833,121.833 145.167,122.167 144.5,122.5C 143.287,122.253 142.62,121.586 142.5,120.5 Z"/></g>
<g><path style="opacity:1" fill="#ffeadc" d="M 148.5,122.5 C 149.376,122.369 150.043,122.702 150.5,123.5C 148.192,124.873 147.525,124.54 148.5,122.5 Z"/></g>
<g><path style="opacity:1" fill="#ffecde" d="M 152.5,123.5 C 154.465,123.948 154.798,124.948 153.5,126.5C 152.614,125.675 152.281,124.675 152.5,123.5 Z"/></g>
<g><path style="opacity:1" fill="#ffecde" d="M 156.5,124.5 C 158.496,123.312 159.329,123.979 159,126.5C 158.292,125.619 157.458,124.953 156.5,124.5 Z"/></g>
<g><path style="opacity:1" fill="#cb6514" d="M 131.5,129.5 C 131.351,130.552 131.517,131.552 132,132.5C 132.333,132.167 132.667,131.833 133,131.5C 145.253,138.071 158.087,139.571 171.5,136C 173.107,134.951 173.773,133.451 173.5,131.5C 175.645,136.212 174.311,139.712 169.5,142C 161.5,142.667 153.5,142.667 145.5,142C 139.843,141.009 135.01,138.509 131,134.5C 130.22,132.613 130.387,130.946 131.5,129.5 Z"/></g>
<g><path style="opacity:1" fill="#e14e19" d="M 132.5,139.5 C 137.185,142.008 142.185,143.841 147.5,145C 141.222,146.19 136.222,144.356 132.5,139.5 Z"/></g>
<g><path style="opacity:1" fill="#e88b63" d="M 123.5,141.5 C 123.5,141.833 123.5,142.167 123.5,142.5C 122.596,143.209 122.263,144.209 122.5,145.5C 111.58,147.207 100.58,147.874 89.5,147.5C 89.5,146.167 89.5,144.833 89.5,143.5C 100.929,143.958 112.263,143.292 123.5,141.5 Z"/></g>
<g><path style="opacity:1" fill="#d1481a" d="M 165.5,144.5 C 170.592,144.497 170.592,145.33 165.5,147C 161.638,147.913 157.972,147.58 154.5,146C 158.356,145.823 162.023,145.323 165.5,144.5 Z"/></g>
<g><path style="opacity:1" fill="#f6ac85" d="M 168.5,148.5 C 179.136,148.07 182.636,153.07 179,163.5C 172.941,169.207 167.608,168.54 163,161.5C 162.333,158.833 162.333,156.167 163,153.5C 164.73,151.598 166.563,149.931 168.5,148.5 Z"/></g>
<g><path style="opacity:1" fill="#fdc0a2" d="M 118.5,151.5 C 116.488,151.735 114.155,152.235 111.5,153C 116.415,162.244 118.249,172.078 117,182.5C 114.832,183.822 114.999,184.489 117.5,184.5C 100.091,188.647 82.7578,187.981 65.5,182.5C 65.5,178.833 65.5,175.167 65.5,171.5C 70.2576,172.85 74.9242,172.684 79.5,171C 82.2899,164.582 84.9566,158.082 87.5,151.5C 98.0029,151.285 108.336,151.285 118.5,151.5 Z"/></g>
<g><path style="opacity:1" fill="#f6ad86" d="M 118.5,151.5 C 123.472,161.118 125.805,171.451 125.5,182.5C 122.888,183.371 120.221,184.037 117.5,184.5C 114.999,184.489 114.832,183.822 117,182.5C 118.249,172.078 116.415,162.244 111.5,153C 114.155,152.235 116.488,151.735 118.5,151.5 Z"/></g>
<g><path style="opacity:1" fill="#36a313" d="M 135.5,153.5 C 133.464,152.374 132.13,150.707 131.5,148.5C 130.042,146.989 128.209,145.989 126,145.5C 125.221,143.094 126.054,141.427 128.5,140.5C 134.131,147.369 141.298,149.703 150,147.5C 153.198,149.455 156.698,150.622 160.5,151C 159.809,152.067 159.309,153.234 159,154.5C 158.275,155.059 157.442,155.392 156.5,155.5C 153.112,152.891 149.279,151.225 145,150.5C 141.911,151.621 138.745,152.621 135.5,153.5 Z"/></g>
<g><path style="opacity:1" fill="#231e1e" d="M 89.5,143.5 C 89.5,144.833 89.5,146.167 89.5,147.5C 100.58,147.874 111.58,147.207 122.5,145.5C 122.263,144.209 122.596,143.209 123.5,142.5C 123.966,144.201 123.966,145.701 123.5,147C 125.129,147.585 126.629,148.419 128,149.5C 129.368,148.734 130.535,148.4 131.5,148.5C 132.13,150.707 133.464,152.374 135.5,153.5C 132.905,154.132 130.738,153.132 129,150.5C 128.601,150.728 128.435,151.062 128.5,151.5C 127.167,151.5 126.5,152.167 126.5,153.5C 125.778,153.082 125.278,152.416 125,151.5C 124.25,152.126 123.416,152.626 122.5,153C 123.571,153.852 124.571,154.685 125.5,155.5C 124.957,155.56 124.624,155.893 124.5,156.5C 125.959,161.129 127.293,165.796 128.5,170.5C 131.98,171.806 135.313,171.806 138.5,170.5C 139.043,170.56 139.376,170.893 139.5,171.5C 135.878,172.325 132.211,172.825 128.5,173C 130.937,174.375 133.603,174.875 136.5,174.5C 134.393,175.468 132.059,175.802 129.5,175.5C 130.32,179.222 128.987,181.555 125.5,182.5C 125.805,171.451 123.472,161.118 118.5,151.5C 108.336,151.285 98.0029,151.285 87.5,151.5C 84.9566,158.082 82.2899,164.582 79.5,171C 74.9242,172.684 70.2576,172.85 65.5,171.5C 65.5,175.167 65.5,178.833 65.5,182.5C 64.4168,182.461 63.4168,182.127 62.5,181.5C 61.5344,179.604 61.2011,177.604 61.5,175.5C 55.1233,175.228 49.6233,172.895 45,168.5C 41.8272,162.819 38.1605,157.486 34,152.5C 32.3409,149.57 32.0076,146.57 33,143.5C 31.7241,147 29.8908,150.167 27.5,153C 25.9656,153.923 24.299,154.423 22.5,154.5C 16.0738,153.035 10.2404,150.369 5,146.5C 3.69862,144.635 3.36528,142.635 4,140.5C 6.389,133.39 9.05566,126.39 12,119.5C 15.2841,114.523 19.7841,113.19 25.5,115.5C 25.185,111.629 25.5184,107.962 26.5,104.5C 27.6483,108.186 27.6483,111.853 26.5,115.5C 28.0046,118.131 28.6713,117.797 28.5,114.5C 29.2485,115.531 29.9152,116.698 30.5,118C 37.2279,119.941 40.0612,124.441 39,131.5C 39.8333,132.333 40.6667,133.167 41.5,134C 44.7897,133.631 48.123,133.631 51.5,134C 54.9651,134.966 57.2984,137.132 58.5,140.5C 59.365,141.583 60.365,141.749 61.5,141C 59.4293,137.884 56.596,134.717 53,131.5C 49.5206,125.677 49.6872,120.011 53.5,114.5C 51.9223,113.702 50.2556,113.202 48.5,113C 42.2716,106.953 41.9383,100.62 47.5,94C 57.1156,92.267 61.949,96.4337 62,106.5C 69.908,103.408 77.408,104.241 84.5,109C 94.3008,118.294 94.9675,128.127 86.5,138.5C 87.9524,139.94 88.9524,141.606 89.5,143.5 Z"/></g>
<g><path style="opacity:1" fill="#34606e" d="M 68.5,136.5 C 74.1034,137.464 79.4367,139.298 84.5,142C 85.0968,143.062 85.4302,144.228 85.5,145.5C 83.4096,153.02 80.743,160.353 77.5,167.5C 76.3122,168.84 74.8122,169.507 73,169.5C 68.3995,167.857 63.8995,166.024 59.5,164C 58.9186,163.107 58.5852,162.107 58.5,161C 60.6336,152.248 63.967,144.081 68.5,136.5 Z"/></g>
<g><path style="opacity:1" fill="#f2a983" d="M 45.5,136.5 C 52.3482,136.349 56.0148,139.682 56.5,146.5C 54.3982,157.219 48.7316,159.719 39.5,154C 36.2306,150.547 35.7306,146.714 38,142.5C 40.1141,139.879 42.6141,137.879 45.5,136.5 Z"/></g>
<g><path style="opacity:1" fill="#f3c3a4" d="M 65.5,107.5 C 82.9743,106.468 90.4743,114.468 88,131.5C 86.8545,134.477 84.6879,136.144 81.5,136.5C 77.8966,135.194 74.2299,134.194 70.5,133.5C 67.5701,133.154 65.2368,134.154 63.5,136.5C 55.8096,132.783 52.643,126.783 54,118.5C 57.0703,113.927 60.9036,110.261 65.5,107.5 Z"/></g>
<g><path style="opacity:1" fill="#1d1a1a" d="M 67.5,122.5 C 68.552,122.351 69.552,122.517 70.5,123C 73.9102,126.053 76.7436,129.219 79,132.5C 78.2825,133.451 77.4491,133.617 76.5,133C 74.5,131 72.5,129 70.5,127C 67.2893,126.202 64.2893,126.702 61.5,128.5C 60.1667,127.5 60.1667,126.5 61.5,125.5C 63.604,124.481 65.604,123.481 67.5,122.5 Z"/></g>
<g><path style="opacity:1" fill="#34606d" d="M 17.5,117.5 C 22.2326,118.694 26.8993,120.194 31.5,122C 33.7358,122.734 35.0692,124.234 35.5,126.5C 32.5382,134.546 29.2049,142.38 25.5,150C 19.026,150.354 13.1927,148.52 8,144.5C 8.87752,134.735 12.0442,125.735 17.5,117.5 Z"/></g>
<g><path style="opacity:1" fill="#221e1e" d="M 66.5,108.5 C 71.6056,107.925 76.1056,109.259 80,112.5C 80.6037,116.588 78.7703,119.088 74.5,120C 69.0832,120.43 65.7499,117.93 64.5,112.5C 64.8029,110.886 65.4695,109.552 66.5,108.5 Z"/></g>
<g><path style="opacity:1" fill="#e6e6e6" d="M 53.5,96.5 C 58.1608,97.3244 58.6608,99.3244 55,102.5C 51.1685,101.198 50.6685,99.1984 53.5,96.5 Z"/></g>
<g><path style="opacity:1" fill="#890823" d="M 143.5,152.5 C 147.536,152.353 150.869,153.853 153.5,157C 148.973,157.734 144.639,157.067 140.5,155C 141.571,154.148 142.571,153.315 143.5,152.5 Z"/></g>
<g><path style="opacity:1" fill="#e1de09" d="M 128.5,151.5 C 129.343,153.173 130.676,154.34 132.5,155C 136.924,157.385 141.591,158.885 146.5,159.5C 149.833,160.167 153.167,160.833 156.5,161.5C 152.539,162.548 148.539,163.048 144.5,163C 138.631,159.566 132.631,156.399 126.5,153.5C 126.5,152.167 127.167,151.5 128.5,151.5 Z"/></g>
<g><path style="opacity:1" fill="#605b19" d="M 146.5,159.5 C 150.555,159.176 154.555,159.509 158.5,160.5C 158.043,161.298 157.376,161.631 156.5,161.5C 153.167,160.833 149.833,160.167 146.5,159.5 Z"/></g>
<g><path style="opacity:1" fill="#e88e65" d="M 52.5,159.5 C 54.2469,160.981 55.4136,162.981 56,165.5C 58.2955,167.057 60.4622,168.724 62.5,170.5C 54.4754,171.821 48.4754,168.821 44.5,161.5C 47.3056,160.832 49.9723,160.166 52.5,159.5 Z"/></g>
<g><path style="opacity:1" fill="#d86d12" d="M 129.5,157.5 C 134.909,160.622 140.409,163.622 146,166.5C 150.778,165.01 155.611,164.176 160.5,164C 161.376,165.586 162.376,167.086 163.5,168.5C 155.917,170.993 148.251,171.16 140.5,169C 134.547,167.217 130.881,163.384 129.5,157.5 Z"/></g>
<g><path style="opacity:1" fill="#e78f66" d="M 125.5,155.5 C 127.295,162.633 131.628,167.633 138.5,170.5C 135.313,171.806 131.98,171.806 128.5,170.5C 127.293,165.796 125.959,161.129 124.5,156.5C 124.624,155.893 124.957,155.56 125.5,155.5 Z"/></g>
</svg>
